<svg xmlns="http://www.w3.org/2000/svg" id="export" class="canvas" preserveAspectRatio="xMidYMid meet" style="" width="133" height="1339"><rect id="background" fill="#fff" pointer-events="all" width="133" height="1339"/><g id="origin" transform="translate(6.033984375, 6.033984375) scale(1)"><g id="clusters" class="clusters"/><g id="edge-paths" class="edge-paths"><defs><marker id="arrowhead" viewBox="0 0 10 10" refX="9" refY="5" markerUnits="strokeWidth" markerWidth="8" markerHeight="6" orient="auto" style="fill: rgb(0, 0, 0);"><path d="M 0 0 L 10 5 L 0 10 L 4 5 z" style="stroke-width: 1;"/></marker><marker id="arrowhead-select" viewBox="0 0 10 10" refX="9" refY="5" markerUnits="strokeWidth" markerWidth="8" markerHeight="6" orient="auto" style="fill: rgb(238, 0, 0);"><path d="M 0 0 L 10 5 L 0 10 L 4 5 z" style="stroke-width: 1;"/></marker><marker id="arrowhead-hover" viewBox="0 0 10 10" refX="9" refY="5" markerUnits="strokeWidth" markerWidth="8" markerHeight="6" orient="auto"><path d="M 0 0 L 10 5 L 0 10 L 4 5 z" style="stroke-width: 1;"/></marker></defs><path id="edge-input" class="edge-path" d="M51.9296875,23L51.9296875,24.666666666666668C51.9296875,26.333333333333332,51.9296875,29.666666666666668,51.9296875,35C51.9296875,40.333333333333336,51.9296875,47.666666666666664,51.9296875,55C51.9296875,62.333333333333336,51.9296875,69.66666666666667,51.9296875,75C51.9296875,80.33333333333333,51.9296875,83.66666666666667,51.9296875,85.33333333333333L51.9296875,87" style="stroke: rgb(0, 0, 0); stroke-width: 1px; fill: none; marker-end: url(&quot;#arrowhead&quot;);"/><path class="edge-path-hit-test" d="M51.9296875,23L51.9296875,24.666666666666668C51.9296875,26.333333333333332,51.9296875,29.666666666666668,51.9296875,35C51.9296875,40.333333333333336,51.9296875,47.666666666666664,51.9296875,55C51.9296875,62.333333333333336,51.9296875,69.66666666666667,51.9296875,75C51.9296875,80.33333333333333,51.9296875,83.66666666666667,51.9296875,85.33333333333333L51.9296875,87" style="pointer-events: stroke; stroke-width: 0.5em; fill: none; stroke: rgb(0, 0, 0); stroke-opacity: 0.001;"/><path id="edge-imagemodel/conv2d_1_input" class="edge-path" d="M51.9296875,110L51.9296875,111.66666666666667C51.9296875,113.33333333333333,51.9296875,116.66666666666667,51.9296875,120C51.9296875,123.33333333333333,51.9296875,126.66666666666667,51.9296875,128.33333333333334L51.9296875,130" style="stroke: rgb(0, 0, 0); stroke-width: 1px; fill: none; marker-end: url(&quot;#arrowhead&quot;);"/><path class="edge-path-hit-test" d="M51.9296875,110L51.9296875,111.66666666666667C51.9296875,113.33333333333333,51.9296875,116.66666666666667,51.9296875,120C51.9296875,123.33333333333333,51.9296875,126.66666666666667,51.9296875,128.33333333333334L51.9296875,130" style="pointer-events: stroke; stroke-width: 0.5em; fill: none; stroke: rgb(0, 0, 0); stroke-opacity: 0.001;"/><path id="edge-imagemodel/conv2d_1" class="edge-path" d="M51.9296875,210L51.9296875,211.66666666666666C51.9296875,213.33333333333334,51.9296875,216.66666666666666,51.9296875,220C51.9296875,223.33333333333334,51.9296875,226.66666666666666,51.9296875,228.33333333333334L51.9296875,230" style="stroke: rgb(0, 0, 0); stroke-width: 1px; fill: none; marker-end: url(&quot;#arrowhead&quot;);"/><path class="edge-path-hit-test" d="M51.9296875,210L51.9296875,211.66666666666666C51.9296875,213.33333333333334,51.9296875,216.66666666666666,51.9296875,220C51.9296875,223.33333333333334,51.9296875,226.66666666666666,51.9296875,228.33333333333334L51.9296875,230" style="pointer-events: stroke; stroke-width: 0.5em; fill: none; stroke: rgb(0, 0, 0); stroke-opacity: 0.001;"/><path id="edge-imagemodel/max_pooling2d_1" class="edge-path" d="M51.9296875,253L51.9296875,254.66666666666666C51.9296875,256.3333333333333,51.9296875,259.6666666666667,51.9296875,263C51.9296875,266.3333333333333,51.9296875,269.6666666666667,51.9296875,271.3333333333333L51.9296875,273" style="stroke: rgb(0, 0, 0); stroke-width: 1px; fill: none; marker-end: url(&quot;#arrowhead&quot;);"/><path class="edge-path-hit-test" d="M51.9296875,253L51.9296875,254.66666666666666C51.9296875,256.3333333333333,51.9296875,259.6666666666667,51.9296875,263C51.9296875,266.3333333333333,51.9296875,269.6666666666667,51.9296875,271.3333333333333L51.9296875,273" style="pointer-events: stroke; stroke-width: 0.5em; fill: none; stroke: rgb(0, 0, 0); stroke-opacity: 0.001;"/><path id="edge-imagemodel/dropout_1" class="edge-path" d="M51.9296875,296L51.9296875,297.6666666666667C51.9296875,299.3333333333333,51.9296875,302.6666666666667,51.9296875,306C51.9296875,309.3333333333333,51.9296875,312.6666666666667,51.9296875,314.3333333333333L51.9296875,316" style="stroke: rgb(0, 0, 0); stroke-width: 1px; fill: none; marker-end: url(&quot;#arrowhead&quot;);"/><path class="edge-path-hit-test" d="M51.9296875,296L51.9296875,297.6666666666667C51.9296875,299.3333333333333,51.9296875,302.6666666666667,51.9296875,306C51.9296875,309.3333333333333,51.9296875,312.6666666666667,51.9296875,314.3333333333333L51.9296875,316" style="pointer-events: stroke; stroke-width: 0.5em; fill: none; stroke: rgb(0, 0, 0); stroke-opacity: 0.001;"/><path id="edge-imagemodel/conv2d_2" class="edge-path" d="M51.9296875,396L51.9296875,397.6666666666667C51.9296875,399.3333333333333,51.9296875,402.6666666666667,51.9296875,406C51.9296875,409.3333333333333,51.9296875,412.6666666666667,51.9296875,414.3333333333333L51.9296875,416" style="stroke: rgb(0, 0, 0); stroke-width: 1px; fill: none; marker-end: url(&quot;#arrowhead&quot;);"/><path class="edge-path-hit-test" d="M51.9296875,396L51.9296875,397.6666666666667C51.9296875,399.3333333333333,51.9296875,402.6666666666667,51.9296875,406C51.9296875,409.3333333333333,51.9296875,412.6666666666667,51.9296875,414.3333333333333L51.9296875,416" style="pointer-events: stroke; stroke-width: 0.5em; fill: none; stroke: rgb(0, 0, 0); stroke-opacity: 0.001;"/><path id="edge-imagemodel/max_pooling2d_2" class="edge-path" d="M51.9296875,439L51.9296875,440.6666666666667C51.9296875,442.3333333333333,51.9296875,445.6666666666667,51.9296875,449C51.9296875,452.3333333333333,51.9296875,455.6666666666667,51.9296875,457.3333333333333L51.9296875,459" style="stroke: rgb(0, 0, 0); stroke-width: 1px; fill: none; marker-end: url(&quot;#arrowhead&quot;);"/><path class="edge-path-hit-test" d="M51.9296875,439L51.9296875,440.6666666666667C51.9296875,442.3333333333333,51.9296875,445.6666666666667,51.9296875,449C51.9296875,452.3333333333333,51.9296875,455.6666666666667,51.9296875,457.3333333333333L51.9296875,459" style="pointer-events: stroke; stroke-width: 0.5em; fill: none; stroke: rgb(0, 0, 0); stroke-opacity: 0.001;"/><path id="edge-imagemodel/dropout_2" class="edge-path" d="M51.9296875,482L51.9296875,483.6666666666667C51.9296875,485.3333333333333,51.9296875,488.6666666666667,51.9296875,492C51.9296875,495.3333333333333,51.9296875,498.6666666666667,51.9296875,500.3333333333333L51.9296875,502" style="stroke: rgb(0, 0, 0); stroke-width: 1px; fill: none; marker-end: url(&quot;#arrowhead&quot;);"/><path class="edge-path-hit-test" d="M51.9296875,482L51.9296875,483.6666666666667C51.9296875,485.3333333333333,51.9296875,488.6666666666667,51.9296875,492C51.9296875,495.3333333333333,51.9296875,498.6666666666667,51.9296875,500.3333333333333L51.9296875,502" style="pointer-events: stroke; stroke-width: 0.5em; fill: none; stroke: rgb(0, 0, 0); stroke-opacity: 0.001;"/><path id="edge-imagemodel/conv2d_3" class="edge-path" d="M51.9296875,582L51.9296875,583.6666666666666C51.9296875,585.3333333333334,51.9296875,588.6666666666666,51.9296875,592C51.9296875,595.3333333333334,51.9296875,598.6666666666666,51.9296875,600.3333333333334L51.9296875,602" style="stroke: rgb(0, 0, 0); stroke-width: 1px; fill: none; marker-end: url(&quot;#arrowhead&quot;);"/><path class="edge-path-hit-test" d="M51.9296875,582L51.9296875,583.6666666666666C51.9296875,585.3333333333334,51.9296875,588.6666666666666,51.9296875,592C51.9296875,595.3333333333334,51.9296875,598.6666666666666,51.9296875,600.3333333333334L51.9296875,602" style="pointer-events: stroke; stroke-width: 0.5em; fill: none; stroke: rgb(0, 0, 0); stroke-opacity: 0.001;"/><path id="edge-imagemodel/max_pooling2d_3" class="edge-path" d="M51.9296875,625L51.9296875,626.6666666666666C51.9296875,628.3333333333334,51.9296875,631.6666666666666,51.9296875,635C51.9296875,638.3333333333334,51.9296875,641.6666666666666,51.9296875,643.3333333333334L51.9296875,645" style="stroke: rgb(0, 0, 0); stroke-width: 1px; fill: none; marker-end: url(&quot;#arrowhead&quot;);"/><path class="edge-path-hit-test" d="M51.9296875,625L51.9296875,626.6666666666666C51.9296875,628.3333333333334,51.9296875,631.6666666666666,51.9296875,635C51.9296875,638.3333333333334,51.9296875,641.6666666666666,51.9296875,643.3333333333334L51.9296875,645" style="pointer-events: stroke; stroke-width: 0.5em; fill: none; stroke: rgb(0, 0, 0); stroke-opacity: 0.001;"/><path id="edge-imagemodel/dropout_3" class="edge-path" d="M51.9296875,668L51.9296875,669.6666666666666C51.9296875,671.3333333333334,51.9296875,674.6666666666666,51.9296875,678C51.9296875,681.3333333333334,51.9296875,684.6666666666666,51.9296875,686.3333333333334L51.9296875,688" style="stroke: rgb(0, 0, 0); stroke-width: 1px; fill: none; marker-end: url(&quot;#arrowhead&quot;);"/><path class="edge-path-hit-test" d="M51.9296875,668L51.9296875,669.6666666666666C51.9296875,671.3333333333334,51.9296875,674.6666666666666,51.9296875,678C51.9296875,681.3333333333334,51.9296875,684.6666666666666,51.9296875,686.3333333333334L51.9296875,688" style="pointer-events: stroke; stroke-width: 0.5em; fill: none; stroke: rgb(0, 0, 0); stroke-opacity: 0.001;"/><path id="edge-imagemodel/conv2d_4" class="edge-path" d="M51.9296875,768L51.9296875,769.6666666666666C51.9296875,771.3333333333334,51.9296875,774.6666666666666,51.9296875,778C51.9296875,781.3333333333334,51.9296875,784.6666666666666,51.9296875,786.3333333333334L51.9296875,788" style="stroke: rgb(0, 0, 0); stroke-width: 1px; fill: none; marker-end: url(&quot;#arrowhead&quot;);"/><path class="edge-path-hit-test" d="M51.9296875,768L51.9296875,769.6666666666666C51.9296875,771.3333333333334,51.9296875,774.6666666666666,51.9296875,778C51.9296875,781.3333333333334,51.9296875,784.6666666666666,51.9296875,786.3333333333334L51.9296875,788" style="pointer-events: stroke; stroke-width: 0.5em; fill: none; stroke: rgb(0, 0, 0); stroke-opacity: 0.001;"/><path id="edge-imagemodel/max_pooling2d_4" class="edge-path" d="M51.9296875,811L51.9296875,812.6666666666666C51.9296875,814.3333333333334,51.9296875,817.6666666666666,51.9296875,821C51.9296875,824.3333333333334,51.9296875,827.6666666666666,51.9296875,829.3333333333334L51.9296875,831" style="stroke: rgb(0, 0, 0); stroke-width: 1px; fill: none; marker-end: url(&quot;#arrowhead&quot;);"/><path class="edge-path-hit-test" d="M51.9296875,811L51.9296875,812.6666666666666C51.9296875,814.3333333333334,51.9296875,817.6666666666666,51.9296875,821C51.9296875,824.3333333333334,51.9296875,827.6666666666666,51.9296875,829.3333333333334L51.9296875,831" style="pointer-events: stroke; stroke-width: 0.5em; fill: none; stroke: rgb(0, 0, 0); stroke-opacity: 0.001;"/><path id="edge-imagemodel/dropout_4" class="edge-path" d="M51.9296875,854L51.9296875,855.6666666666666C51.9296875,857.3333333333334,51.9296875,860.6666666666666,51.9296875,864C51.9296875,867.3333333333334,51.9296875,870.6666666666666,51.9296875,872.3333333333334L51.9296875,874" style="stroke: rgb(0, 0, 0); stroke-width: 1px; fill: none; marker-end: url(&quot;#arrowhead&quot;);"/><path class="edge-path-hit-test" d="M51.9296875,854L51.9296875,855.6666666666666C51.9296875,857.3333333333334,51.9296875,860.6666666666666,51.9296875,864C51.9296875,867.3333333333334,51.9296875,870.6666666666666,51.9296875,872.3333333333334L51.9296875,874" style="pointer-events: stroke; stroke-width: 0.5em; fill: none; stroke: rgb(0, 0, 0); stroke-opacity: 0.001;"/><path id="edge-imagemodel/flatten" class="edge-path" d="M51.9296875,897L51.9296875,898.6666666666666C51.9296875,900.3333333333334,51.9296875,903.6666666666666,51.9296875,907C51.9296875,910.3333333333334,51.9296875,913.6666666666666,51.9296875,915.3333333333334L51.9296875,917" style="stroke: rgb(0, 0, 0); stroke-width: 1px; fill: none; marker-end: url(&quot;#arrowhead&quot;);"/><path class="edge-path-hit-test" d="M51.9296875,897L51.9296875,898.6666666666666C51.9296875,900.3333333333334,51.9296875,903.6666666666666,51.9296875,907C51.9296875,910.3333333333334,51.9296875,913.6666666666666,51.9296875,915.3333333333334L51.9296875,917" style="pointer-events: stroke; stroke-width: 0.5em; fill: none; stroke: rgb(0, 0, 0); stroke-opacity: 0.001;"/><path id="edge-imagemodel/dense_1" class="edge-path" d="M51.9296875,997L51.9296875,998.6666666666666C51.9296875,1000.3333333333334,51.9296875,1003.6666666666666,51.9296875,1007C51.9296875,1010.3333333333334,51.9296875,1013.6666666666666,51.9296875,1015.3333333333334L51.9296875,1017" style="stroke: rgb(0, 0, 0); stroke-width: 1px; fill: none; marker-end: url(&quot;#arrowhead&quot;);"/><path class="edge-path-hit-test" d="M51.9296875,997L51.9296875,998.6666666666666C51.9296875,1000.3333333333334,51.9296875,1003.6666666666666,51.9296875,1007C51.9296875,1010.3333333333334,51.9296875,1013.6666666666666,51.9296875,1015.3333333333334L51.9296875,1017" style="pointer-events: stroke; stroke-width: 0.5em; fill: none; stroke: rgb(0, 0, 0); stroke-opacity: 0.001;"/><path id="edge-imagemodel/dropout_5" class="edge-path" d="M51.9296875,1040L51.9296875,1041.6666666666667C51.9296875,1043.3333333333333,51.9296875,1046.6666666666667,51.9296875,1050C51.9296875,1053.3333333333333,51.9296875,1056.6666666666667,51.9296875,1058.3333333333333L51.9296875,1060" style="stroke: rgb(0, 0, 0); stroke-width: 1px; fill: none; marker-end: url(&quot;#arrowhead&quot;);"/><path class="edge-path-hit-test" d="M51.9296875,1040L51.9296875,1041.6666666666667C51.9296875,1043.3333333333333,51.9296875,1046.6666666666667,51.9296875,1050C51.9296875,1053.3333333333333,51.9296875,1056.6666666666667,51.9296875,1058.3333333333333L51.9296875,1060" style="pointer-events: stroke; stroke-width: 0.5em; fill: none; stroke: rgb(0, 0, 0); stroke-opacity: 0.001;"/><path id="edge-imagemodel/dense_2" class="edge-path" d="M51.9296875,1140L51.9296875,1141.6666666666667C51.9296875,1143.3333333333333,51.9296875,1146.6666666666667,51.9296875,1150C51.9296875,1153.3333333333333,51.9296875,1156.6666666666667,51.9296875,1158.3333333333333L51.9296875,1160" style="stroke: rgb(0, 0, 0); stroke-width: 1px; fill: none; marker-end: url(&quot;#arrowhead&quot;);"/><path class="edge-path-hit-test" d="M51.9296875,1140L51.9296875,1141.6666666666667C51.9296875,1143.3333333333333,51.9296875,1146.6666666666667,51.9296875,1150C51.9296875,1153.3333333333333,51.9296875,1156.6666666666667,51.9296875,1158.3333333333333L51.9296875,1160" style="pointer-events: stroke; stroke-width: 0.5em; fill: none; stroke: rgb(0, 0, 0); stroke-opacity: 0.001;"/><path id="edge-imagemodel/dropout_6" class="edge-path" d="M51.9296875,1183L51.9296875,1184.6666666666667C51.9296875,1186.3333333333333,51.9296875,1189.6666666666667,51.9296875,1193C51.9296875,1196.3333333333333,51.9296875,1199.6666666666667,51.9296875,1201.3333333333333L51.9296875,1203" style="stroke: rgb(0, 0, 0); stroke-width: 1px; fill: none; marker-end: url(&quot;#arrowhead&quot;);"/><path class="edge-path-hit-test" d="M51.9296875,1183L51.9296875,1184.6666666666667C51.9296875,1186.3333333333333,51.9296875,1189.6666666666667,51.9296875,1193C51.9296875,1196.3333333333333,51.9296875,1199.6666666666667,51.9296875,1201.3333333333333L51.9296875,1203" style="pointer-events: stroke; stroke-width: 0.5em; fill: none; stroke: rgb(0, 0, 0); stroke-opacity: 0.001;"/><path id="edge-imagemodel/output_layer" class="edge-path" d="M51.9296875,1283L51.9296875,1284.6666666666667C51.9296875,1286.3333333333333,51.9296875,1289.6666666666667,51.9296875,1293C51.9296875,1296.3333333333333,51.9296875,1299.6666666666667,51.9296875,1301.3333333333333L51.9296875,1303" style="stroke: rgb(0, 0, 0); stroke-width: 1px; fill: none; marker-end: url(&quot;#arrowhead&quot;);"/><path class="edge-path-hit-test" d="M51.9296875,1283L51.9296875,1284.6666666666667C51.9296875,1286.3333333333333,51.9296875,1289.6666666666667,51.9296875,1293C51.9296875,1296.3333333333333,51.9296875,1299.6666666666667,51.9296875,1301.3333333333333L51.9296875,1303" style="pointer-events: stroke; stroke-width: 0.5em; fill: none; stroke: rgb(0, 0, 0); stroke-opacity: 0.001;"/></g><g id="edge-labels" class="edge-labels"><text class="edge-label" id="edge-label-edge-input" transform="translate(56.9296875,48)" style="opacity: 1; font-family: -apple-system, BlinkMacSystemFont, &quot;Segoe WPC&quot;, &quot;Segoe UI&quot;, Ubuntu, &quot;Droid Sans&quot;, sans-serif, &quot;PingFang SC&quot;; font-size: 10px;"><tspan xml:space="preserve" dy="1em" x="1">?×224×224×3</tspan></text></g><g id="nodes" class="nodes"><g id="input-name-input" class="node graph-input" transform="translate(32.13916015625,0)" style="opacity: 1;"><g class="node-item graph-item-input" transform="translate(0,0)"><path d="M5,0h29.5810546875a5,5 0 0 1 5,5v13a5,5 0 0 1 -5,5h-29.5810546875a5,5 0 0 1 -5,-5v-13a5,5 0 0 1 5,-5z" style="stroke: rgb(0, 0, 0); fill: rgb(238, 238, 238); stroke-width: 0;"/><text x="6" y="16" style="font-family: -apple-system, BlinkMacSystemFont, &quot;Segoe WPC&quot;, &quot;Segoe UI&quot;, Ubuntu, &quot;Droid Sans&quot;, sans-serif, &quot;PingFang SC&quot;; font-size: 11px; text-rendering: geometricprecision; user-select: none;">input</text><title>float32[?,224,224,3]</title></g><path class="node border" d="M5,0h29.5810546875a5,5 0 0 1 5,5v13a5,5 0 0 1 -5,5h-29.5810546875a5,5 0 0 1 -5,-5v-13a5,5 0 0 1 5,-5z" style="stroke: rgb(51, 51, 51); fill: none; stroke-width: 1px;"/></g><g id="node-name-imagemodel/conv2d_1_input" class="node graph-node" transform="translate(18.718994140625,87)" style="opacity: 1;"><g class="node-item node-item-type node-item-type-data" transform="translate(0,0)"><path d="M5,0h56.42138671875a5,5 0 0 1 5,5v13a5,5 0 0 1 -5,5h-56.42138671875a5,5 0 0 1 -5,-5v-13a5,5 0 0 1 5,-5z" style="stroke: rgb(0, 0, 0); fill: rgb(85, 85, 85); stroke-width: 0;"/><text x="6" y="16" style="font-family: -apple-system, BlinkMacSystemFont, &quot;Segoe WPC&quot;, &quot;Segoe UI&quot;, Ubuntu, &quot;Droid Sans&quot;, sans-serif, &quot;PingFang SC&quot;; font-size: 11px; text-rendering: geometricprecision; user-select: none; fill: rgb(255, 255, 255);">InputLayer</text><title>imagemodel/conv2d_1_input</title></g><path class="node border" d="M5,0h56.42138671875a5,5 0 0 1 5,5v13a5,5 0 0 1 -5,5h-56.42138671875a5,5 0 0 1 -5,-5v-13a5,5 0 0 1 5,-5z" style="stroke: rgb(51, 51, 51); fill: none; stroke-width: 1px;"/></g><g id="node-name-imagemodel/conv2d_1" class="node graph-node" transform="translate(2.4296875,130)" style="opacity: 1;"><g class="node-item node-item-type node-item-type-layer" transform="translate(0,0)"><path d="M5,0h89a5,5 0 0 1 5,5v18a0,0 0 0 1 0,0h-99a0,0 0 0 1 0,0v-18a5,5 0 0 1 5,-5z" style="stroke: rgb(0, 0, 0); fill: rgb(51, 85, 136); stroke-width: 0;"/><text x="6" y="16" style="font-family: -apple-system, BlinkMacSystemFont, &quot;Segoe WPC&quot;, &quot;Segoe UI&quot;, Ubuntu, &quot;Droid Sans&quot;, sans-serif, &quot;PingFang SC&quot;; font-size: 11px; text-rendering: geometricprecision; user-select: none; fill: rgb(255, 255, 255);">Conv2D</text><title>imagemodel/conv2d_1</title></g><g class="node-attribute" transform="translate(0,23)"><path d="M0,0h99a0,0 0 0 1 0,0v34a0,0 0 0 1 0,0h-99a0,0 0 0 1 0,0v-34a0,0 0 0 1 0,0z" style="stroke: rgb(0, 0, 0); fill: rgb(255, 255, 255); stroke-width: 0;"/><text xml:space="preserve" x="6" y="14" style="font-family: -apple-system, BlinkMacSystemFont, &quot;Segoe WPC&quot;, &quot;Segoe UI&quot;, Ubuntu, &quot;Droid Sans&quot;, sans-serif, &quot;PingFang SC&quot;; font-size: 9px; font-weight: normal; text-rendering: geometricprecision; user-select: none;"><title>float32[5,5,3,16]</title><tspan style="font-weight: bold;">kernel</tspan><tspan>〈5×5×3×16〉</tspan></text><text xml:space="preserve" x="6" y="28" style="font-family: -apple-system, BlinkMacSystemFont, &quot;Segoe WPC&quot;, &quot;Segoe UI&quot;, Ubuntu, &quot;Droid Sans&quot;, sans-serif, &quot;PingFang SC&quot;; font-size: 9px; font-weight: normal; text-rendering: geometricprecision; user-select: none;"><title>float32[16]</title><tspan style="font-weight: bold;">bias</tspan><tspan>〈16〉</tspan></text><line class="node" x1="0" x2="99" y1="0" y2="0" style="stroke: rgb(51, 51, 51); fill: none; stroke-width: 1px;"/></g><g class="node-item node-item-type node-item-type-activation" transform="translate(0,57)"><path d="M0,0h99a0,0 0 0 1 0,0v18a5,5 0 0 1 -5,5h-89a5,5 0 0 1 -5,-5v-18a0,0 0 0 1 0,0z" style="stroke: rgb(0, 0, 0); fill: rgb(112, 41, 33); stroke-width: 0;"/><text x="6" y="16" style="font-family: -apple-system, BlinkMacSystemFont, &quot;Segoe WPC&quot;, &quot;Segoe UI&quot;, Ubuntu, &quot;Droid Sans&quot;, sans-serif, &quot;PingFang SC&quot;; font-size: 11px; text-rendering: geometricprecision; user-select: none; fill: rgb(255, 255, 255);">ReLU</text></g><line class="node" x1="0" x2="99" y1="57" y2="57" style="stroke: rgb(51, 51, 51); fill: none; stroke-width: 1px;"/><path class="node border" d="M5,0h89a5,5 0 0 1 5,5v70a5,5 0 0 1 -5,5h-89a5,5 0 0 1 -5,-5v-70a5,5 0 0 1 5,-5z" style="stroke: rgb(51, 51, 51); fill: none; stroke-width: 1px;"/></g><g id="node-name-imagemodel/max_pooling2d_1" class="node graph-node" transform="translate(9.366455078125,230)" style="opacity: 1;"><g class="node-item node-item-type node-item-type-pool" transform="translate(0,0)"><path d="M5,0h75.12646484375a5,5 0 0 1 5,5v13a5,5 0 0 1 -5,5h-75.12646484375a5,5 0 0 1 -5,-5v-13a5,5 0 0 1 5,-5z" style="stroke: rgb(0, 0, 0); fill: rgb(51, 85, 51); stroke-width: 0;"/><text x="6" y="16" style="font-family: -apple-system, BlinkMacSystemFont, &quot;Segoe WPC&quot;, &quot;Segoe UI&quot;, Ubuntu, &quot;Droid Sans&quot;, sans-serif, &quot;PingFang SC&quot;; font-size: 11px; text-rendering: geometricprecision; user-select: none; fill: rgb(255, 255, 255);">MaxPooling2D</text><title>imagemodel/max_pooling2d_1</title></g><path class="node border" d="M5,0h75.12646484375a5,5 0 0 1 5,5v13a5,5 0 0 1 -5,5h-75.12646484375a5,5 0 0 1 -5,-5v-13a5,5 0 0 1 5,-5z" style="stroke: rgb(51, 51, 51); fill: none; stroke-width: 1px;"/></g><g id="node-name-imagemodel/dropout_1" class="node graph-node" transform="translate(24.369873046875,273)" style="opacity: 1;"><g class="node-item node-item-type node-item-type-dropout" transform="translate(0,0)"><path d="M5,0h45.11962890625a5,5 0 0 1 5,5v13a5,5 0 0 1 -5,5h-45.11962890625a5,5 0 0 1 -5,-5v-13a5,5 0 0 1 5,-5z" style="stroke: rgb(0, 0, 0); fill: rgb(69, 71, 112); stroke-width: 0;"/><text x="6" y="16" style="font-family: -apple-system, BlinkMacSystemFont, &quot;Segoe WPC&quot;, &quot;Segoe UI&quot;, Ubuntu, &quot;Droid Sans&quot;, sans-serif, &quot;PingFang SC&quot;; font-size: 11px; text-rendering: geometricprecision; user-select: none; fill: rgb(255, 255, 255);">Dropout</text><title>imagemodel/dropout_1</title></g><path class="node border" d="M5,0h45.11962890625a5,5 0 0 1 5,5v13a5,5 0 0 1 -5,5h-45.11962890625a5,5 0 0 1 -5,-5v-13a5,5 0 0 1 5,-5z" style="stroke: rgb(51, 51, 51); fill: none; stroke-width: 1px;"/></g><g id="node-name-imagemodel/conv2d_2" class="node graph-node" transform="translate(0,316)" style="opacity: 1;"><g class="node-item node-item-type node-item-type-layer" transform="translate(0,0)"><path d="M5,0h93.859375a5,5 0 0 1 5,5v18a0,0 0 0 1 0,0h-103.859375a0,0 0 0 1 0,0v-18a5,5 0 0 1 5,-5z" style="stroke: rgb(0, 0, 0); fill: rgb(51, 85, 136); stroke-width: 0;"/><text x="6" y="16" style="font-family: -apple-system, BlinkMacSystemFont, &quot;Segoe WPC&quot;, &quot;Segoe UI&quot;, Ubuntu, &quot;Droid Sans&quot;, sans-serif, &quot;PingFang SC&quot;; font-size: 11px; text-rendering: geometricprecision; user-select: none; fill: rgb(255, 255, 255);">Conv2D</text><title>imagemodel/conv2d_2</title></g><g class="node-attribute" transform="translate(0,23)"><path d="M0,0h103.859375a0,0 0 0 1 0,0v34a0,0 0 0 1 0,0h-103.859375a0,0 0 0 1 0,0v-34a0,0 0 0 1 0,0z" style="stroke: rgb(0, 0, 0); fill: rgb(255, 255, 255); stroke-width: 0;"/><text xml:space="preserve" x="6" y="14" style="font-family: -apple-system, BlinkMacSystemFont, &quot;Segoe WPC&quot;, &quot;Segoe UI&quot;, Ubuntu, &quot;Droid Sans&quot;, sans-serif, &quot;PingFang SC&quot;; font-size: 9px; font-weight: normal; text-rendering: geometricprecision; user-select: none;"><title>float32[5,5,16,32]</title><tspan style="font-weight: bold;">kernel</tspan><tspan>〈5×5×16×32〉</tspan></text><text xml:space="preserve" x="6" y="28" style="font-family: -apple-system, BlinkMacSystemFont, &quot;Segoe WPC&quot;, &quot;Segoe UI&quot;, Ubuntu, &quot;Droid Sans&quot;, sans-serif, &quot;PingFang SC&quot;; font-size: 9px; font-weight: normal; text-rendering: geometricprecision; user-select: none;"><title>float32[32]</title><tspan style="font-weight: bold;">bias</tspan><tspan>〈32〉</tspan></text><line class="node" x1="0" x2="103.859375" y1="0" y2="0" style="stroke: rgb(51, 51, 51); fill: none; stroke-width: 1px;"/></g><g class="node-item node-item-type node-item-type-activation" transform="translate(0,57)"><path d="M0,0h103.859375a0,0 0 0 1 0,0v18a5,5 0 0 1 -5,5h-93.859375a5,5 0 0 1 -5,-5v-18a0,0 0 0 1 0,0z" style="stroke: rgb(0, 0, 0); fill: rgb(112, 41, 33); stroke-width: 0;"/><text x="6" y="16" style="font-family: -apple-system, BlinkMacSystemFont, &quot;Segoe WPC&quot;, &quot;Segoe UI&quot;, Ubuntu, &quot;Droid Sans&quot;, sans-serif, &quot;PingFang SC&quot;; font-size: 11px; text-rendering: geometricprecision; user-select: none; fill: rgb(255, 255, 255);">ReLU</text></g><line class="node" x1="0" x2="103.859375" y1="57" y2="57" style="stroke: rgb(51, 51, 51); fill: none; stroke-width: 1px;"/><path class="node border" d="M5,0h93.859375a5,5 0 0 1 5,5v70a5,5 0 0 1 -5,5h-93.859375a5,5 0 0 1 -5,-5v-70a5,5 0 0 1 5,-5z" style="stroke: rgb(51, 51, 51); fill: none; stroke-width: 1px;"/></g><g id="node-name-imagemodel/max_pooling2d_2" class="node graph-node" transform="translate(9.366455078125,416)" style="opacity: 1;"><g class="node-item node-item-type node-item-type-pool" transform="translate(0,0)"><path d="M5,0h75.12646484375a5,5 0 0 1 5,5v13a5,5 0 0 1 -5,5h-75.12646484375a5,5 0 0 1 -5,-5v-13a5,5 0 0 1 5,-5z" style="stroke: rgb(0, 0, 0); fill: rgb(51, 85, 51); stroke-width: 0;"/><text x="6" y="16" style="font-family: -apple-system, BlinkMacSystemFont, &quot;Segoe WPC&quot;, &quot;Segoe UI&quot;, Ubuntu, &quot;Droid Sans&quot;, sans-serif, &quot;PingFang SC&quot;; font-size: 11px; text-rendering: geometricprecision; user-select: none; fill: rgb(255, 255, 255);">MaxPooling2D</text><title>imagemodel/max_pooling2d_2</title></g><path class="node border" d="M5,0h75.12646484375a5,5 0 0 1 5,5v13a5,5 0 0 1 -5,5h-75.12646484375a5,5 0 0 1 -5,-5v-13a5,5 0 0 1 5,-5z" style="stroke: rgb(51, 51, 51); fill: none; stroke-width: 1px;"/></g><g id="node-name-imagemodel/dropout_2" class="node graph-node" transform="translate(24.369873046875,459)" style="opacity: 1;"><g class="node-item node-item-type node-item-type-dropout" transform="translate(0,0)"><path d="M5,0h45.11962890625a5,5 0 0 1 5,5v13a5,5 0 0 1 -5,5h-45.11962890625a5,5 0 0 1 -5,-5v-13a5,5 0 0 1 5,-5z" style="stroke: rgb(0, 0, 0); fill: rgb(69, 71, 112); stroke-width: 0;"/><text x="6" y="16" style="font-family: -apple-system, BlinkMacSystemFont, &quot;Segoe WPC&quot;, &quot;Segoe UI&quot;, Ubuntu, &quot;Droid Sans&quot;, sans-serif, &quot;PingFang SC&quot;; font-size: 11px; text-rendering: geometricprecision; user-select: none; fill: rgb(255, 255, 255);">Dropout</text><title>imagemodel/dropout_2</title></g><path class="node border" d="M5,0h45.11962890625a5,5 0 0 1 5,5v13a5,5 0 0 1 -5,5h-45.11962890625a5,5 0 0 1 -5,-5v-13a5,5 0 0 1 5,-5z" style="stroke: rgb(51, 51, 51); fill: none; stroke-width: 1px;"/></g><g id="node-name-imagemodel/conv2d_3" class="node graph-node" transform="translate(0,502)" style="opacity: 1;"><g class="node-item node-item-type node-item-type-layer" transform="translate(0,0)"><path d="M5,0h93.859375a5,5 0 0 1 5,5v18a0,0 0 0 1 0,0h-103.859375a0,0 0 0 1 0,0v-18a5,5 0 0 1 5,-5z" style="stroke: rgb(0, 0, 0); fill: rgb(51, 85, 136); stroke-width: 0;"/><text x="6" y="16" style="font-family: -apple-system, BlinkMacSystemFont, &quot;Segoe WPC&quot;, &quot;Segoe UI&quot;, Ubuntu, &quot;Droid Sans&quot;, sans-serif, &quot;PingFang SC&quot;; font-size: 11px; text-rendering: geometricprecision; user-select: none; fill: rgb(255, 255, 255);">Conv2D</text><title>imagemodel/conv2d_3</title></g><g class="node-attribute" transform="translate(0,23)"><path d="M0,0h103.859375a0,0 0 0 1 0,0v34a0,0 0 0 1 0,0h-103.859375a0,0 0 0 1 0,0v-34a0,0 0 0 1 0,0z" style="stroke: rgb(0, 0, 0); fill: rgb(255, 255, 255); stroke-width: 0;"/><text xml:space="preserve" x="6" y="14" style="font-family: -apple-system, BlinkMacSystemFont, &quot;Segoe WPC&quot;, &quot;Segoe UI&quot;, Ubuntu, &quot;Droid Sans&quot;, sans-serif, &quot;PingFang SC&quot;; font-size: 9px; font-weight: normal; text-rendering: geometricprecision; user-select: none;"><title>float32[5,5,32,64]</title><tspan style="font-weight: bold;">kernel</tspan><tspan>〈5×5×32×64〉</tspan></text><text xml:space="preserve" x="6" y="28" style="font-family: -apple-system, BlinkMacSystemFont, &quot;Segoe WPC&quot;, &quot;Segoe UI&quot;, Ubuntu, &quot;Droid Sans&quot;, sans-serif, &quot;PingFang SC&quot;; font-size: 9px; font-weight: normal; text-rendering: geometricprecision; user-select: none;"><title>float32[64]</title><tspan style="font-weight: bold;">bias</tspan><tspan>〈64〉</tspan></text><line class="node" x1="0" x2="103.859375" y1="0" y2="0" style="stroke: rgb(51, 51, 51); fill: none; stroke-width: 1px;"/></g><g class="node-item node-item-type node-item-type-activation" transform="translate(0,57)"><path d="M0,0h103.859375a0,0 0 0 1 0,0v18a5,5 0 0 1 -5,5h-93.859375a5,5 0 0 1 -5,-5v-18a0,0 0 0 1 0,0z" style="stroke: rgb(0, 0, 0); fill: rgb(112, 41, 33); stroke-width: 0;"/><text x="6" y="16" style="font-family: -apple-system, BlinkMacSystemFont, &quot;Segoe WPC&quot;, &quot;Segoe UI&quot;, Ubuntu, &quot;Droid Sans&quot;, sans-serif, &quot;PingFang SC&quot;; font-size: 11px; text-rendering: geometricprecision; user-select: none; fill: rgb(255, 255, 255);">ReLU</text></g><line class="node" x1="0" x2="103.859375" y1="57" y2="57" style="stroke: rgb(51, 51, 51); fill: none; stroke-width: 1px;"/><path class="node border" d="M5,0h93.859375a5,5 0 0 1 5,5v70a5,5 0 0 1 -5,5h-93.859375a5,5 0 0 1 -5,-5v-70a5,5 0 0 1 5,-5z" style="stroke: rgb(51, 51, 51); fill: none; stroke-width: 1px;"/></g><g id="node-name-imagemodel/max_pooling2d_3" class="node graph-node" transform="translate(9.366455078125,602)" style="opacity: 1;"><g class="node-item node-item-type node-item-type-pool" transform="translate(0,0)"><path d="M5,0h75.12646484375a5,5 0 0 1 5,5v13a5,5 0 0 1 -5,5h-75.12646484375a5,5 0 0 1 -5,-5v-13a5,5 0 0 1 5,-5z" style="stroke: rgb(0, 0, 0); fill: rgb(51, 85, 51); stroke-width: 0;"/><text x="6" y="16" style="font-family: -apple-system, BlinkMacSystemFont, &quot;Segoe WPC&quot;, &quot;Segoe UI&quot;, Ubuntu, &quot;Droid Sans&quot;, sans-serif, &quot;PingFang SC&quot;; font-size: 11px; text-rendering: geometricprecision; user-select: none; fill: rgb(255, 255, 255);">MaxPooling2D</text><title>imagemodel/max_pooling2d_3</title></g><path class="node border" d="M5,0h75.12646484375a5,5 0 0 1 5,5v13a5,5 0 0 1 -5,5h-75.12646484375a5,5 0 0 1 -5,-5v-13a5,5 0 0 1 5,-5z" style="stroke: rgb(51, 51, 51); fill: none; stroke-width: 1px;"/></g><g id="node-name-imagemodel/dropout_3" class="node graph-node" transform="translate(24.369873046875,645)" style="opacity: 1;"><g class="node-item node-item-type node-item-type-dropout" transform="translate(0,0)"><path d="M5,0h45.11962890625a5,5 0 0 1 5,5v13a5,5 0 0 1 -5,5h-45.11962890625a5,5 0 0 1 -5,-5v-13a5,5 0 0 1 5,-5z" style="stroke: rgb(0, 0, 0); fill: rgb(69, 71, 112); stroke-width: 0;"/><text x="6" y="16" style="font-family: -apple-system, BlinkMacSystemFont, &quot;Segoe WPC&quot;, &quot;Segoe UI&quot;, Ubuntu, &quot;Droid Sans&quot;, sans-serif, &quot;PingFang SC&quot;; font-size: 11px; text-rendering: geometricprecision; user-select: none; fill: rgb(255, 255, 255);">Dropout</text><title>imagemodel/dropout_3</title></g><path class="node border" d="M5,0h45.11962890625a5,5 0 0 1 5,5v13a5,5 0 0 1 -5,5h-45.11962890625a5,5 0 0 1 -5,-5v-13a5,5 0 0 1 5,-5z" style="stroke: rgb(51, 51, 51); fill: none; stroke-width: 1px;"/></g><g id="node-name-imagemodel/conv2d_4" class="node graph-node" transform="translate(0,688)" style="opacity: 1;"><g class="node-item node-item-type node-item-type-layer" transform="translate(0,0)"><path d="M5,0h93.859375a5,5 0 0 1 5,5v18a0,0 0 0 1 0,0h-103.859375a0,0 0 0 1 0,0v-18a5,5 0 0 1 5,-5z" style="stroke: rgb(0, 0, 0); fill: rgb(51, 85, 136); stroke-width: 0;"/><text x="6" y="16" style="font-family: -apple-system, BlinkMacSystemFont, &quot;Segoe WPC&quot;, &quot;Segoe UI&quot;, Ubuntu, &quot;Droid Sans&quot;, sans-serif, &quot;PingFang SC&quot;; font-size: 11px; text-rendering: geometricprecision; user-select: none; fill: rgb(255, 255, 255);">Conv2D</text><title>imagemodel/conv2d_4</title></g><g class="node-attribute" transform="translate(0,23)"><path d="M0,0h103.859375a0,0 0 0 1 0,0v34a0,0 0 0 1 0,0h-103.859375a0,0 0 0 1 0,0v-34a0,0 0 0 1 0,0z" style="stroke: rgb(0, 0, 0); fill: rgb(255, 255, 255); stroke-width: 0;"/><text xml:space="preserve" x="6" y="14" style="font-family: -apple-system, BlinkMacSystemFont, &quot;Segoe WPC&quot;, &quot;Segoe UI&quot;, Ubuntu, &quot;Droid Sans&quot;, sans-serif, &quot;PingFang SC&quot;; font-size: 9px; font-weight: normal; text-rendering: geometricprecision; user-select: none;"><title>float32[5,5,64,64]</title><tspan style="font-weight: bold;">kernel</tspan><tspan>〈5×5×64×64〉</tspan></text><text xml:space="preserve" x="6" y="28" style="font-family: -apple-system, BlinkMacSystemFont, &quot;Segoe WPC&quot;, &quot;Segoe UI&quot;, Ubuntu, &quot;Droid Sans&quot;, sans-serif, &quot;PingFang SC&quot;; font-size: 9px; font-weight: normal; text-rendering: geometricprecision; user-select: none;"><title>float32[64]</title><tspan style="font-weight: bold;">bias</tspan><tspan>〈64〉</tspan></text><line class="node" x1="0" x2="103.859375" y1="0" y2="0" style="stroke: rgb(51, 51, 51); fill: none; stroke-width: 1px;"/></g><g class="node-item node-item-type node-item-type-activation" transform="translate(0,57)"><path d="M0,0h103.859375a0,0 0 0 1 0,0v18a5,5 0 0 1 -5,5h-93.859375a5,5 0 0 1 -5,-5v-18a0,0 0 0 1 0,0z" style="stroke: rgb(0, 0, 0); fill: rgb(112, 41, 33); stroke-width: 0;"/><text x="6" y="16" style="font-family: -apple-system, BlinkMacSystemFont, &quot;Segoe WPC&quot;, &quot;Segoe UI&quot;, Ubuntu, &quot;Droid Sans&quot;, sans-serif, &quot;PingFang SC&quot;; font-size: 11px; text-rendering: geometricprecision; user-select: none; fill: rgb(255, 255, 255);">ReLU</text></g><line class="node" x1="0" x2="103.859375" y1="57" y2="57" style="stroke: rgb(51, 51, 51); fill: none; stroke-width: 1px;"/><path class="node border" d="M5,0h93.859375a5,5 0 0 1 5,5v70a5,5 0 0 1 -5,5h-93.859375a5,5 0 0 1 -5,-5v-70a5,5 0 0 1 5,-5z" style="stroke: rgb(51, 51, 51); fill: none; stroke-width: 1px;"/></g><g id="node-name-imagemodel/max_pooling2d_4" class="node graph-node" transform="translate(9.366455078125,788)" style="opacity: 1;"><g class="node-item node-item-type node-item-type-pool" transform="translate(0,0)"><path d="M5,0h75.12646484375a5,5 0 0 1 5,5v13a5,5 0 0 1 -5,5h-75.12646484375a5,5 0 0 1 -5,-5v-13a5,5 0 0 1 5,-5z" style="stroke: rgb(0, 0, 0); fill: rgb(51, 85, 51); stroke-width: 0;"/><text x="6" y="16" style="font-family: -apple-system, BlinkMacSystemFont, &quot;Segoe WPC&quot;, &quot;Segoe UI&quot;, Ubuntu, &quot;Droid Sans&quot;, sans-serif, &quot;PingFang SC&quot;; font-size: 11px; text-rendering: geometricprecision; user-select: none; fill: rgb(255, 255, 255);">MaxPooling2D</text><title>imagemodel/max_pooling2d_4</title></g><path class="node border" d="M5,0h75.12646484375a5,5 0 0 1 5,5v13a5,5 0 0 1 -5,5h-75.12646484375a5,5 0 0 1 -5,-5v-13a5,5 0 0 1 5,-5z" style="stroke: rgb(51, 51, 51); fill: none; stroke-width: 1px;"/></g><g id="node-name-imagemodel/dropout_4" class="node graph-node" transform="translate(24.369873046875,831)" style="opacity: 1;"><g class="node-item node-item-type node-item-type-dropout" transform="translate(0,0)"><path d="M5,0h45.11962890625a5,5 0 0 1 5,5v13a5,5 0 0 1 -5,5h-45.11962890625a5,5 0 0 1 -5,-5v-13a5,5 0 0 1 5,-5z" style="stroke: rgb(0, 0, 0); fill: rgb(69, 71, 112); stroke-width: 0;"/><text x="6" y="16" style="font-family: -apple-system, BlinkMacSystemFont, &quot;Segoe WPC&quot;, &quot;Segoe UI&quot;, Ubuntu, &quot;Droid Sans&quot;, sans-serif, &quot;PingFang SC&quot;; font-size: 11px; text-rendering: geometricprecision; user-select: none; fill: rgb(255, 255, 255);">Dropout</text><title>imagemodel/dropout_4</title></g><path class="node border" d="M5,0h45.11962890625a5,5 0 0 1 5,5v13a5,5 0 0 1 -5,5h-45.11962890625a5,5 0 0 1 -5,-5v-13a5,5 0 0 1 5,-5z" style="stroke: rgb(51, 51, 51); fill: none; stroke-width: 1px;"/></g><g id="node-name-imagemodel/flatten" class="node graph-node" transform="translate(28.390625,874)" style="opacity: 1;"><g class="node-item node-item-type node-item-type-shape" transform="translate(0,0)"><path d="M5,0h37.078125a5,5 0 0 1 5,5v13a5,5 0 0 1 -5,5h-37.078125a5,5 0 0 1 -5,-5v-13a5,5 0 0 1 5,-5z" style="stroke: rgb(0, 0, 0); fill: rgb(108, 79, 71); stroke-width: 0;"/><text x="6" y="16" style="font-family: -apple-system, BlinkMacSystemFont, &quot;Segoe WPC&quot;, &quot;Segoe UI&quot;, Ubuntu, &quot;Droid Sans&quot;, sans-serif, &quot;PingFang SC&quot;; font-size: 11px; text-rendering: geometricprecision; user-select: none; fill: rgb(255, 255, 255);">Flatten</text><title>imagemodel/flatten</title></g><path class="node border" d="M5,0h37.078125a5,5 0 0 1 5,5v13a5,5 0 0 1 -5,5h-37.078125a5,5 0 0 1 -5,-5v-13a5,5 0 0 1 5,-5z" style="stroke: rgb(51, 51, 51); fill: none; stroke-width: 1px;"/></g><g id="node-name-imagemodel/dense_1" class="node graph-node" transform="translate(3.734375,917)" style="opacity: 1;"><g class="node-item node-item-type node-item-type-layer" transform="translate(0,0)"><path d="M5,0h86.390625a5,5 0 0 1 5,5v18a0,0 0 0 1 0,0h-96.390625a0,0 0 0 1 0,0v-18a5,5 0 0 1 5,-5z" style="stroke: rgb(0, 0, 0); fill: rgb(51, 85, 136); stroke-width: 0;"/><text x="6" y="16" style="font-family: -apple-system, BlinkMacSystemFont, &quot;Segoe WPC&quot;, &quot;Segoe UI&quot;, Ubuntu, &quot;Droid Sans&quot;, sans-serif, &quot;PingFang SC&quot;; font-size: 11px; text-rendering: geometricprecision; user-select: none; fill: rgb(255, 255, 255);">Dense</text><title>imagemodel/dense_1</title></g><g class="node-attribute" transform="translate(0,23)"><path d="M0,0h96.390625a0,0 0 0 1 0,0v34a0,0 0 0 1 0,0h-96.390625a0,0 0 0 1 0,0v-34a0,0 0 0 1 0,0z" style="stroke: rgb(0, 0, 0); fill: rgb(255, 255, 255); stroke-width: 0;"/><text xml:space="preserve" x="6" y="14" style="font-family: -apple-system, BlinkMacSystemFont, &quot;Segoe WPC&quot;, &quot;Segoe UI&quot;, Ubuntu, &quot;Droid Sans&quot;, sans-serif, &quot;PingFang SC&quot;; font-size: 9px; font-weight: normal; text-rendering: geometricprecision; user-select: none;"><title>float32[6400,128]</title><tspan style="font-weight: bold;">kernel</tspan><tspan>〈6400×128〉</tspan></text><text xml:space="preserve" x="6" y="28" style="font-family: -apple-system, BlinkMacSystemFont, &quot;Segoe WPC&quot;, &quot;Segoe UI&quot;, Ubuntu, &quot;Droid Sans&quot;, sans-serif, &quot;PingFang SC&quot;; font-size: 9px; font-weight: normal; text-rendering: geometricprecision; user-select: none;"><title>float32[128]</title><tspan style="font-weight: bold;">bias</tspan><tspan>〈128〉</tspan></text><line class="node" x1="0" x2="96.390625" y1="0" y2="0" style="stroke: rgb(51, 51, 51); fill: none; stroke-width: 1px;"/></g><g class="node-item node-item-type node-item-type-activation" transform="translate(0,57)"><path d="M0,0h96.390625a0,0 0 0 1 0,0v18a5,5 0 0 1 -5,5h-86.390625a5,5 0 0 1 -5,-5v-18a0,0 0 0 1 0,0z" style="stroke: rgb(0, 0, 0); fill: rgb(112, 41, 33); stroke-width: 0;"/><text x="6" y="16" style="font-family: -apple-system, BlinkMacSystemFont, &quot;Segoe WPC&quot;, &quot;Segoe UI&quot;, Ubuntu, &quot;Droid Sans&quot;, sans-serif, &quot;PingFang SC&quot;; font-size: 11px; text-rendering: geometricprecision; user-select: none; fill: rgb(255, 255, 255);">ReLU</text></g><line class="node" x1="0" x2="96.390625" y1="57" y2="57" style="stroke: rgb(51, 51, 51); fill: none; stroke-width: 1px;"/><path class="node border" d="M5,0h86.390625a5,5 0 0 1 5,5v70a5,5 0 0 1 -5,5h-86.390625a5,5 0 0 1 -5,-5v-70a5,5 0 0 1 5,-5z" style="stroke: rgb(51, 51, 51); fill: none; stroke-width: 1px;"/></g><g id="node-name-imagemodel/dropout_5" class="node graph-node" transform="translate(24.369873046875,1017)" style="opacity: 1;"><g class="node-item node-item-type node-item-type-dropout" transform="translate(0,0)"><path d="M5,0h45.11962890625a5,5 0 0 1 5,5v13a5,5 0 0 1 -5,5h-45.11962890625a5,5 0 0 1 -5,-5v-13a5,5 0 0 1 5,-5z" style="stroke: rgb(0, 0, 0); fill: rgb(69, 71, 112); stroke-width: 0;"/><text x="6" y="16" style="font-family: -apple-system, BlinkMacSystemFont, &quot;Segoe WPC&quot;, &quot;Segoe UI&quot;, Ubuntu, &quot;Droid Sans&quot;, sans-serif, &quot;PingFang SC&quot;; font-size: 11px; text-rendering: geometricprecision; user-select: none; fill: rgb(255, 255, 255);">Dropout</text><title>imagemodel/dropout_5</title></g><path class="node border" d="M5,0h45.11962890625a5,5 0 0 1 5,5v13a5,5 0 0 1 -5,5h-45.11962890625a5,5 0 0 1 -5,-5v-13a5,5 0 0 1 5,-5z" style="stroke: rgb(51, 51, 51); fill: none; stroke-width: 1px;"/></g><g id="node-name-imagemodel/dense_2" class="node graph-node" transform="translate(8.5859375,1060)" style="opacity: 1;"><g class="node-item node-item-type node-item-type-layer" transform="translate(0,0)"><path d="M5,0h76.6875a5,5 0 0 1 5,5v18a0,0 0 0 1 0,0h-86.6875a0,0 0 0 1 0,0v-18a5,5 0 0 1 5,-5z" style="stroke: rgb(0, 0, 0); fill: rgb(51, 85, 136); stroke-width: 0;"/><text x="6" y="16" style="font-family: -apple-system, BlinkMacSystemFont, &quot;Segoe WPC&quot;, &quot;Segoe UI&quot;, Ubuntu, &quot;Droid Sans&quot;, sans-serif, &quot;PingFang SC&quot;; font-size: 11px; text-rendering: geometricprecision; user-select: none; fill: rgb(255, 255, 255);">Dense</text><title>imagemodel/dense_2</title></g><g class="node-attribute" transform="translate(0,23)"><path d="M0,0h86.6875a0,0 0 0 1 0,0v34a0,0 0 0 1 0,0h-86.6875a0,0 0 0 1 0,0v-34a0,0 0 0 1 0,0z" style="stroke: rgb(0, 0, 0); fill: rgb(255, 255, 255); stroke-width: 0;"/><text xml:space="preserve" x="6" y="14" style="font-family: -apple-system, BlinkMacSystemFont, &quot;Segoe WPC&quot;, &quot;Segoe UI&quot;, Ubuntu, &quot;Droid Sans&quot;, sans-serif, &quot;PingFang SC&quot;; font-size: 9px; font-weight: normal; text-rendering: geometricprecision; user-select: none;"><title>float32[128,64]</title><tspan style="font-weight: bold;">kernel</tspan><tspan>〈128×64〉</tspan></text><text xml:space="preserve" x="6" y="28" style="font-family: -apple-system, BlinkMacSystemFont, &quot;Segoe WPC&quot;, &quot;Segoe UI&quot;, Ubuntu, &quot;Droid Sans&quot;, sans-serif, &quot;PingFang SC&quot;; font-size: 9px; font-weight: normal; text-rendering: geometricprecision; user-select: none;"><title>float32[64]</title><tspan style="font-weight: bold;">bias</tspan><tspan>〈64〉</tspan></text><line class="node" x1="0" x2="86.6875" y1="0" y2="0" style="stroke: rgb(51, 51, 51); fill: none; stroke-width: 1px;"/></g><g class="node-item node-item-type node-item-type-activation" transform="translate(0,57)"><path d="M0,0h86.6875a0,0 0 0 1 0,0v18a5,5 0 0 1 -5,5h-76.6875a5,5 0 0 1 -5,-5v-18a0,0 0 0 1 0,0z" style="stroke: rgb(0, 0, 0); fill: rgb(112, 41, 33); stroke-width: 0;"/><text x="6" y="16" style="font-family: -apple-system, BlinkMacSystemFont, &quot;Segoe WPC&quot;, &quot;Segoe UI&quot;, Ubuntu, &quot;Droid Sans&quot;, sans-serif, &quot;PingFang SC&quot;; font-size: 11px; text-rendering: geometricprecision; user-select: none; fill: rgb(255, 255, 255);">ReLU</text></g><line class="node" x1="0" x2="86.6875" y1="57" y2="57" style="stroke: rgb(51, 51, 51); fill: none; stroke-width: 1px;"/><path class="node border" d="M5,0h76.6875a5,5 0 0 1 5,5v70a5,5 0 0 1 -5,5h-76.6875a5,5 0 0 1 -5,-5v-70a5,5 0 0 1 5,-5z" style="stroke: rgb(51, 51, 51); fill: none; stroke-width: 1px;"/></g><g id="node-name-imagemodel/dropout_6" class="node graph-node" transform="translate(24.369873046875,1160)" style="opacity: 1;"><g class="node-item node-item-type node-item-type-dropout" transform="translate(0,0)"><path d="M5,0h45.11962890625a5,5 0 0 1 5,5v13a5,5 0 0 1 -5,5h-45.11962890625a5,5 0 0 1 -5,-5v-13a5,5 0 0 1 5,-5z" style="stroke: rgb(0, 0, 0); fill: rgb(69, 71, 112); stroke-width: 0;"/><text x="6" y="16" style="font-family: -apple-system, BlinkMacSystemFont, &quot;Segoe WPC&quot;, &quot;Segoe UI&quot;, Ubuntu, &quot;Droid Sans&quot;, sans-serif, &quot;PingFang SC&quot;; font-size: 11px; text-rendering: geometricprecision; user-select: none; fill: rgb(255, 255, 255);">Dropout</text><title>imagemodel/dropout_6</title></g><path class="node border" d="M5,0h45.11962890625a5,5 0 0 1 5,5v13a5,5 0 0 1 -5,5h-45.11962890625a5,5 0 0 1 -5,-5v-13a5,5 0 0 1 5,-5z" style="stroke: rgb(51, 51, 51); fill: none; stroke-width: 1px;"/></g><g id="node-name-imagemodel/output_layer" class="node graph-node" transform="translate(11.0078125,1203)" style="opacity: 1;"><g class="node-item node-item-type node-item-type-layer" transform="translate(0,0)"><path d="M5,0h71.84375a5,5 0 0 1 5,5v18a0,0 0 0 1 0,0h-81.84375a0,0 0 0 1 0,0v-18a5,5 0 0 1 5,-5z" style="stroke: rgb(0, 0, 0); fill: rgb(51, 85, 136); stroke-width: 0;"/><text x="6" y="16" style="font-family: -apple-system, BlinkMacSystemFont, &quot;Segoe WPC&quot;, &quot;Segoe UI&quot;, Ubuntu, &quot;Droid Sans&quot;, sans-serif, &quot;PingFang SC&quot;; font-size: 11px; text-rendering: geometricprecision; user-select: none; fill: rgb(255, 255, 255);">Dense</text><title>imagemodel/output_layer</title></g><g class="node-attribute" transform="translate(0,23)"><path d="M0,0h81.84375a0,0 0 0 1 0,0v34a0,0 0 0 1 0,0h-81.84375a0,0 0 0 1 0,0v-34a0,0 0 0 1 0,0z" style="stroke: rgb(0, 0, 0); fill: rgb(255, 255, 255); stroke-width: 0;"/><text xml:space="preserve" x="6" y="14" style="font-family: -apple-system, BlinkMacSystemFont, &quot;Segoe WPC&quot;, &quot;Segoe UI&quot;, Ubuntu, &quot;Droid Sans&quot;, sans-serif, &quot;PingFang SC&quot;; font-size: 9px; font-weight: normal; text-rendering: geometricprecision; user-select: none;"><title>float32[64,22]</title><tspan style="font-weight: bold;">kernel</tspan><tspan>〈64×22〉</tspan></text><text xml:space="preserve" x="6" y="28" style="font-family: -apple-system, BlinkMacSystemFont, &quot;Segoe WPC&quot;, &quot;Segoe UI&quot;, Ubuntu, &quot;Droid Sans&quot;, sans-serif, &quot;PingFang SC&quot;; font-size: 9px; font-weight: normal; text-rendering: geometricprecision; user-select: none;"><title>float32[22]</title><tspan style="font-weight: bold;">bias</tspan><tspan>〈22〉</tspan></text><line class="node" x1="0" x2="81.84375" y1="0" y2="0" style="stroke: rgb(51, 51, 51); fill: none; stroke-width: 1px;"/></g><g class="node-item node-item-type node-item-type-activation" transform="translate(0,57)"><path d="M0,0h81.84375a0,0 0 0 1 0,0v18a5,5 0 0 1 -5,5h-71.84375a5,5 0 0 1 -5,-5v-18a0,0 0 0 1 0,0z" style="stroke: rgb(0, 0, 0); fill: rgb(112, 41, 33); stroke-width: 0;"/><text x="6" y="16" style="font-family: -apple-system, BlinkMacSystemFont, &quot;Segoe WPC&quot;, &quot;Segoe UI&quot;, Ubuntu, &quot;Droid Sans&quot;, sans-serif, &quot;PingFang SC&quot;; font-size: 11px; text-rendering: geometricprecision; user-select: none; fill: rgb(255, 255, 255);">Sigmoid</text></g><line class="node" x1="0" x2="81.84375" y1="57" y2="57" style="stroke: rgb(51, 51, 51); fill: none; stroke-width: 1px;"/><path class="node border" d="M5,0h71.84375a5,5 0 0 1 5,5v70a5,5 0 0 1 -5,5h-71.84375a5,5 0 0 1 -5,-5v-70a5,5 0 0 1 5,-5z" style="stroke: rgb(51, 51, 51); fill: none; stroke-width: 1px;"/></g><g class="node" transform="translate(14.0703125,1303)" style="opacity: 1;"><g class="node-item graph-item-output" transform="translate(0,0)"><path d="M5,0h65.71875a5,5 0 0 1 5,5v13a5,5 0 0 1 -5,5h-65.71875a5,5 0 0 1 -5,-5v-13a5,5 0 0 1 5,-5z" style="stroke: rgb(0, 0, 0); fill: rgb(238, 238, 238); stroke-width: 0;"/><text x="6" y="16" style="font-family: -apple-system, BlinkMacSystemFont, &quot;Segoe WPC&quot;, &quot;Segoe UI&quot;, Ubuntu, &quot;Droid Sans&quot;, sans-serif, &quot;PingFang SC&quot;; font-size: 11px; text-rendering: geometricprecision; user-select: none;">output_layer</text></g><path class="node border" d="M5,0h65.71875a5,5 0 0 1 5,5v13a5,5 0 0 1 -5,5h-65.71875a5,5 0 0 1 -5,-5v-13a5,5 0 0 1 5,-5z" style="stroke: rgb(51, 51, 51); fill: none; stroke-width: 1px;"/></g></g></g></svg>